<svg width="520" height="360" viewBox="0 0 520 360" fill="none" xmlns="http://www.w3.org/2000/svg">
  <rect x="40" y="44" width="440" height="272" rx="32" fill="url(#paint0_linear)"/>
  <rect x="100" y="104" width="320" height="152" rx="24" fill="white" fill-opacity="0.9"/>
  <path d="M140 148H380" stroke="#5440FF" stroke-width="12" stroke-linecap="round"/>
  <path d="M140 184H340" stroke="#50E1EB" stroke-width="12" stroke-linecap="round"/>
  <circle cx="420" cy="96" r="22" fill="#FF6289" fill-opacity="0.85"/>
  <circle cx="124" cy="276" r="16" fill="#5440FF" fill-opacity="0.7"/>
  <path d="M220 236L260 276L320 212" stroke="#4FE18D" stroke-width="12" stroke-linecap="round" stroke-linejoin="round"/>
  <g filter="url(#filter0_d)">
    <rect x="188" y="68" width="144" height="40" rx="20" fill="#FFFCF7"/>
  </g>
  <rect x="204" y="84" width="112" height="8" rx="4" fill="#5440FF" fill-opacity="0.8"/>
  <path d="M78 78L90 90M90 78L78 90" stroke="#FF6289" stroke-width="6" stroke-linecap="round"/>
  <path d="M434 274L446 286M446 274L434 286" stroke="#50E1EB" stroke-width="6" stroke-linecap="round"/>
  <defs>
    <filter id="filter0_d" x="148" y="48" width="224" height="120" filterUnits="userSpaceOnUse" color-interpolation-filters="sRGB">
      <feFlood flood-opacity="0" result="BackgroundImageFix"/>
      <feColorMatrix in="SourceAlpha" type="matrix" values="0 0 0 0 0 0 0 0 0 0 0 0 0 0 0 0 0 0 127 0" result="hardAlpha"/>
      <feOffset dy="8"/>
      <feGaussianBlur stdDeviation="20"/>
      <feComposite in2="hardAlpha" operator="out"/>
      <feColorMatrix type="matrix" values="0 0 0 0 0.16 0 0 0 0 0.12 0 0 0 0 0.35 0 0 0 0.16 0"/>
      <feBlend mode="normal" in2="BackgroundImageFix" result="effect1_dropShadow"/>
      <feBlend mode="normal" in="SourceGraphic" in2="effect1_dropShadow" result="shape"/>
    </filter>
    <linearGradient id="paint0_linear" x1="40" y1="44" x2="480" y2="316" gradientUnits="userSpaceOnUse">
      <stop stop-color="#5440FF" stop-opacity="0.9"/>
      <stop offset="1" stop-color="#50E1EB" stop-opacity="0.85"/>
    </linearGradient>
  </defs>
</svg>
